<svg xmlns="http://www.w3.org/2000/svg" version="1.0" width="2917.000000pt" height="2917.000000pt" viewBox="0 0 2917.000000 2917.000000" preserveAspectRatio="xMidYMid meet">

    <g transform="translate(0.000000,2917.000000) scale(0.100000,-0.100000)" fill="#000000" stroke="none">
        <path d="M13955 29163 c-435 -26 -777 -55 -1065 -89 -2023 -238 -3962 -892 -5715 -1927 -1644 -971 -3098 -2269 -4246 -3792 -782 -1038 -1419 -2169 -1894 -3365 -298 -749 -517 -1464 -690 -2247 -197 -895 -345 -2057 -345 -2708 l0 -175 37 5 c21 2 171 7 333 10 4170 81 6489 334 8185 893 1577 521 2793 1368 3690 2572 985 1322 1527 3004 1804 5605 88 821 132 1475 181 2690 44 1101 60 1669 60 2148 l0 387 -142 -2 c-79 -1 -165 -3 -193 -5z"/>
        <path d="M15201 29151 c-63 -117 -26 -1922 74 -3646 188 -3226 674 -5233 1633 -6740 290 -456 557 -782 988 -1205 601 -591 1130 -969 1859 -1330 1506 -745 3398 -1104 6700 -1270 559 -28 1059 -47 1860 -70 380 -11 728 -21 774 -23 l84 -4 -6 266 c-16 666 -152 1731 -323 2526 -551 2562 -1750 4874 -3533 6815 -184 199 -691 703 -886 881 -1513 1370 -3200 2372 -5115 3036 -657 228 -1462 438 -2135 558 -334 59 -1211 167 -1712 209 -236 21 -250 20 -262 -3z"/>
        <path d="M0 13978 c0 -60 40 -560 60 -763 365 -3595 1914 -6759 4520 -9233 635 -603 1196 -1055 1865 -1501 1728 -1153 3742 -1955 5745 -2286 591 -98 1570 -195 1960 -195 l158 0 -4 63 c-2 34 -9 233 -14 442 -88 3208 -222 4840 -520 6325 -315 1575 -788 2734 -1515 3710 -341 458 -792 926 -1249 1295 -1710 1380 -4141 1969 -8771 2125 -475 16 -1907 50 -2102 50 l-133 0 0 -32z"/>
        <path d="M27775 13984 c-1167 -38 -1874 -73 -2590 -129 -2276 -179 -3833 -496 -5105 -1037 -195 -84 -579 -276 -775 -388 -1061 -609 -1968 -1527 -2598 -2630 -866 -1517 -1301 -3636 -1472 -7165 -69 -1443 -83 -2455 -34 -2602 9 -29 15 -33 44 -33 164 0 1261 123 1690 190 459 71 1033 198 1560 345 2220 619 4137 1674 5861 3227 336 302 851 825 1175 1193 1662 1887 2822 4196 3329 6625 92 440 208 1235 270 1840 26 264 45 549 36 558 -7 7 -1201 12 -1391 6z"/>
    </g>
</svg>