<svg width="24" height="24" viewBox="0 0 24 24" fill="none" xmlns="http://www.w3.org/2000/svg">
<path d="M12.5929 23.258L12.5819 23.26L12.5109 23.295L12.4909 23.299L12.4769 23.295L12.4059 23.26C12.3953 23.2567 12.3873 23.2583 12.3819 23.265L12.3779 23.275L12.3609 23.703L12.3659 23.723L12.3759 23.736L12.4799 23.81L12.4949 23.814L12.5069 23.81L12.6109 23.736L12.6229 23.72L12.6269 23.703L12.6099 23.276C12.6073 23.2653 12.6016 23.2593 12.5929 23.258ZM12.8579 23.145L12.8449 23.147L12.6599 23.24L12.6499 23.25L12.6469 23.261L12.6649 23.691L12.6699 23.703L12.6779 23.71L12.8789 23.803C12.8916 23.8063 12.9013 23.8037 12.9079 23.795L12.9119 23.781L12.8779 23.167C12.8746 23.155 12.8679 23.1477 12.8579 23.145ZM12.1429 23.147C12.1385 23.1443 12.1333 23.1435 12.1282 23.1446C12.1232 23.1457 12.1188 23.1487 12.1159 23.153L12.1099 23.167L12.0759 23.781C12.0766 23.793 12.0823 23.801 12.0929 23.805L12.1079 23.803L12.3089 23.71L12.3189 23.702L12.3229 23.691L12.3399 23.261L12.3369 23.249L12.3269 23.239L12.1429 23.147Z" fill="#2148C0"/>
<path d="M19 3C19.7956 3 20.5587 3.31607 21.1213 3.87868C21.6839 4.44129 22 5.20435 22 6V18C22 18.7956 21.6839 19.5587 21.1213 20.1213C20.5587 20.6839 19.7956 21 19 21H5C4.20435 21 3.44129 20.6839 2.87868 20.1213C2.31607 19.5587 2 18.7956 2 18V6C2 5.20435 2.31607 4.44129 2.87868 3.87868C3.44129 3.31607 4.20435 3 5 3H19ZM12 7C10.6739 7 9.40215 7.52678 8.46447 8.46447C7.52678 9.40215 7 10.6739 7 12C7 13.3261 7.52678 14.5979 8.46447 15.5355C9.40215 16.4732 10.6739 17 12 17C13.3261 17 14.5979 16.4732 15.5355 15.5355C16.4732 14.5979 17 13.3261 17 12C17 10.6739 16.4732 9.40215 15.5355 8.46447C14.5979 7.52678 13.3261 7 12 7ZM12 9C12.7956 9 13.5587 9.31607 14.1213 9.87868C14.6839 10.4413 15 11.2044 15 12C15 12.7956 14.6839 13.5587 14.1213 14.1213C13.5587 14.6839 12.7956 15 12 15C11.2044 15 10.4413 14.6839 9.87868 14.1213C9.31607 13.5587 9 12.7956 9 12C9 11.2044 9.31607 10.4413 9.87868 9.87868C10.4413 9.31607 11.2044 9 12 9ZM19 6H18C17.7451 6.00028 17.5 6.09788 17.3146 6.27285C17.1293 6.44782 17.0178 6.68695 17.0028 6.94139C16.9879 7.19584 17.0707 7.44638 17.2343 7.64183C17.3979 7.83729 17.6299 7.9629 17.883 7.993L18 8H19C19.2549 7.99972 19.5 7.90212 19.6854 7.72715C19.8707 7.55218 19.9822 7.31305 19.9972 7.05861C20.0121 6.80416 19.9293 6.55362 19.7657 6.35817C19.6021 6.16271 19.3701 6.0371 19.117 6.007L19 6Z" fill="#2148C0"/>
</svg>
