<svg version="1.1" xmlns="http://www.w3.org/2000/svg" width="559" height="512" viewBox="0 0 559 512"><title>vk</title><path d="M547.715 148.571c4.285 11.714-9.143 39.143-42.857 84-55.428 73.715-61.428 66.857-15.714 109.429 44 40.857 53.143 60.572 54.571 63.143 0 0 18.285 32-20.285 32.286l-73.143 1.143c-15.714 3.143-36.572-11.143-36.572-11.143-27.428-18.857-53.143-67.714-73.143-61.428 0 0-20.572 6.572-20 50.572 0.286 9.428-4.286 14.572-4.286 14.572s-5.143 5.428-15.143 6.286h-32.857c-72.286 4.572-136-62-136-62s-69.715-72-130.857-215.714c-4-9.428 0.285-14 0.285-14s4.285-5.428 16.285-5.428l78.285-0.571c7.428 1.143 12.572 5.143 12.572 5.143s4.572 3.143 6.857 9.143c12.857 32 29.428 61.143 29.428 61.143 28.572 58.857 48 68.857 59.143 62.857 0 0 14.571-8.857 11.429-80-1.143-25.714-8.286-37.428-8.286-37.428-6.572-8.857-18.857-11.428-24.286-12.286-4.286-0.571 2.857-10.857 12.286-15.428 14-6.857 38.857-7.143 68.286-6.857 23.143 0.285 29.714 1.715 38.572 3.714 27.143 6.571 18 31.715 18 92.285 0 19.428-3.714 46.572 10.286 55.428 6 4 20.857 0.572 57.428-61.714 0 0 17.143-29.714 30.572-64.286 2.286-6.286 7.143-8.857 7.143-8.857s4.572-2.571 10.857-1.714l82.285-0.571c24.857-3.143 28.857 8.286 28.857 8.286z"></path></svg>